<svg width="40" height="40" viewBox="0 0 40 40" fill="none" xmlns="http://www.w3.org/2000/svg">
<path d="M38.6377 31.6238L30.4249 23.4112L30.0807 23.7553C29.5105 24.3255 28.5853 24.3255 28.0153 23.7553C27.4452 23.1854 27.4452 22.2601 28.0153 21.6899L28.3595 21.3458L26.2941 19.2804L19.4094 26.1651L21.4748 28.2305L21.8192 27.8861C22.3891 27.3161 23.3144 27.3161 23.8846 27.8861C24.4545 28.4562 24.4545 29.3815 23.8846 29.9517L23.5402 30.2958L31.7531 38.5085C32.0023 38.7558 32.2769 38.9754 32.573 39.1632L39.2925 32.4439C39.1036 32.1479 38.8841 31.8724 38.6377 31.6238Z" fill="#FFDA44"/>
<path d="M39.2925 32.444L32.573 39.1632C34.8324 40.6147 37.8413 39.96 39.2925 37.7003C40.321 36.099 40.321 34.0445 39.2925 32.444Z" fill="#DADDDF"/>
<path d="M8.39385 5.51102L7.70556 2.75709L2.88625 0.00341797L0.132324 2.75709L2.88625 7.5764L5.64018 8.26495L21.4747 24.0997L24.2286 21.3458L8.39385 5.51102Z" fill="#CFD2D4"/>
<path d="M39.8306 5.7438L35.2441 10.3303L31.1134 8.95346L29.7365 4.82244L34.323 0.235949C30.2872 -0.79388 26.1812 1.64322 25.1513 5.67903C24.8395 6.90239 24.8395 8.18428 25.1513 9.40764L9.53691 25.0221C5.45974 23.9873 1.31597 26.4527 0.281197 30.5299C-0.753834 34.6068 1.71162 38.7509 5.78879 39.7856C9.86597 40.8204 14.0097 38.3549 15.0445 34.278C15.3564 33.0484 15.3564 31.7595 15.0445 30.5299L30.6589 14.9155C34.6976 15.9427 38.8034 13.5015 39.8306 9.46278C40.1404 8.24229 40.1404 6.96378 39.8306 5.7438ZM9.77102 35.8037H5.64026L3.57462 32.3612L5.64026 28.919H9.77102L11.8364 32.3612L9.77102 35.8037Z" fill="#DADDDF"/>
<path d="M12.0364 27.0547L27.1826 11.9084L28.1562 12.8821L13.01 28.0283L12.0364 27.0547Z" fill="#B6B8BA"/>
<path d="M27.1831 28.0289L28.1567 27.0553L35.0412 33.94L34.0675 34.9136L27.1831 28.0289Z" fill="#FFDA44"/>
<path d="M40.0635 35.0663C40.0627 34.1361 39.795 33.2259 39.2925 32.444L37.3096 34.4266V39.4462C38.9923 38.636 40.0622 36.9334 40.0635 35.0663Z" fill="#CFD2D4"/>
</svg>
