<svg width="40" height="40" viewBox="0 0 40 40" fill="none" xmlns="http://www.w3.org/2000/svg">
<path d="M38.7922 15.7679C38.8904 16.7337 38.6878 17.7062 38.2121 18.5524C37.7365 19.3986 37.011 20.0772 36.1349 20.4953C35.2588 20.9135 34.275 21.0507 33.3179 20.8883C32.3609 20.7259 31.4774 20.2717 30.7883 19.588C30.0992 18.9042 29.6383 18.0243 29.4684 17.0685C29.2986 16.1127 29.4282 15.1278 29.8395 14.2486C30.2508 13.3693 30.9237 12.6385 31.7662 12.1563C32.6087 11.6741 33.5796 11.464 34.5461 11.5547L34.5664 11.575L32.0032 14.139L32.6625 17.689L36.2118 18.3476L38.7922 15.7679Z" fill="#CCD3DF"/>
<path d="M31.7641 33.186C32.3652 32.7711 33.0879 32.5696 33.817 32.6138C34.546 32.6579 35.2392 32.9451 35.7858 33.4294C36.3324 33.9138 36.701 34.5673 36.8325 35.2857C36.9641 36.0041 36.8511 36.7459 36.5116 37.3925C36.1722 38.0392 35.6257 38.5534 34.9597 38.853C34.2937 39.1527 33.5464 39.2205 32.8373 39.0455C32.1282 38.8706 31.4982 38.4631 31.0479 37.8881C30.5976 37.3131 30.353 36.6038 30.3532 35.8735C30.3514 35.3444 30.4791 34.823 30.725 34.3545C30.9709 33.8861 31.3276 33.4849 31.7641 33.186ZM35.2563 35.8735L34.4383 34.457H32.8024L31.9844 35.8735L32.8024 37.2906H34.4383L35.2563 35.8735Z" fill="#88B337"/>
<path d="M31.764 20.3335V20.3328C32.3215 20.6519 32.9383 20.8537 33.5765 20.926C34.2148 20.9983 34.8611 20.9394 35.4758 20.7531V33.1624L35.4648 33.1781C34.9196 32.8047 34.274 32.6056 33.6132 32.607C32.9524 32.6084 32.3076 32.8102 31.764 33.1859" fill="#B0B5CA"/>
<path d="M27.3336 29.5524V39.1406H22.6586V23.6188C23.9908 23.9395 25.1763 24.6991 26.0243 25.7754C26.8723 26.8518 27.3335 28.1821 27.3336 29.5524Z" fill="#A0EAEA"/>
<path d="M18.7773 22.1008L18.732 22.1852V25.9125C18.732 27.099 18.2607 28.2368 17.4218 29.0757C16.5828 29.9147 15.445 30.386 14.2586 30.386C13.0721 30.386 11.9343 29.9147 11.0954 29.0757C10.2564 28.2368 9.78513 27.099 9.78513 25.9125V22.1961L9.61169 22.2829C8.41588 22.8709 7.15627 23.3192 5.85779 23.6188V39.1407H22.6586V23.6188C21.3046 23.2828 20 22.7726 18.7773 22.1008Z" fill="#FE8700"/>
<path d="M21.2 8.93835H7.31716C7.07671 8.93835 6.8461 9.03388 6.67607 9.2039C6.50604 9.37393 6.41052 9.60454 6.41052 9.84499C6.41052 10.0854 6.50604 10.3161 6.67607 10.4861C6.8461 10.6561 7.07671 10.7516 7.31716 10.7516H21.2C21.4404 10.7516 21.671 10.6561 21.8411 10.4861C22.0111 10.3161 22.1066 10.0854 22.1066 9.84499C22.1066 9.60454 22.0111 9.37393 21.8411 9.2039C21.671 9.03388 21.4404 8.93835 21.2 8.93835Z" fill="#EDB740"/>
<path d="M21.1617 8.86409V8.93831H7.35547V8.87581C7.35547 5.96096 8.96875 3.40706 11.3008 2.22502V3.10784C11.3009 4.00755 11.5856 4.88416 12.1142 5.61219C12.6429 6.34023 13.3883 6.88235 14.2437 7.16096L14.3414 7.19221C15.1807 6.90352 15.9089 6.35994 16.4243 5.63737C16.9397 4.9148 17.2167 4.04931 17.2164 3.16174V2.22424C19.5484 3.40393 21.1617 5.94924 21.1617 8.86409Z" fill="#FFDB00"/>
<path d="M19.5305 10.7516L19.5493 12.8883H19.8086C19.902 12.8883 19.9949 12.9017 20.0844 12.9282C20.3589 12.2287 20.544 11.4974 20.6352 10.7516H19.5305Z" fill="#88B337"/>
<path d="M20.0844 12.9281C19.9948 12.9017 19.9019 12.8883 19.8086 12.8883H19.5492L19.5304 10.7516H9.21561L9.19686 12.8883H8.93748C8.79918 12.8878 8.66243 12.9174 8.5367 12.975C8.33473 13.0667 8.17022 13.2247 8.07056 13.4228C7.9709 13.621 7.9421 13.8473 7.98894 14.064C8.03579 14.2808 8.15546 14.475 8.32804 14.6143C8.50061 14.7536 8.71569 14.8297 8.93748 14.8297H9.19686L9.60467 17.4344C9.72063 18.1732 10.0065 18.8749 10.4398 19.4844C10.8747 20.0924 11.4435 20.5922 12.1023 20.9453C12.8011 21.3182 13.581 21.5133 14.373 21.5133C15.1651 21.5133 15.9449 21.3182 16.6437 20.9453C16.9203 20.7982 17.1817 20.6242 17.4242 20.4258C18.3457 19.6744 18.9572 18.6091 19.1414 17.4344L19.5492 14.8297H19.8086C20.0418 14.8296 20.2672 14.7455 20.4436 14.5928C20.6199 14.4401 20.7353 14.229 20.7688 13.9982C20.8023 13.7674 20.7516 13.5322 20.6259 13.3357C20.5002 13.1392 20.308 12.9945 20.0844 12.9281Z" fill="#FFD8B7"/>
<path d="M18.7773 22.1008L18.732 22.1851V25.9125C18.732 27.0989 18.2607 28.2367 17.4218 29.0757C16.5829 29.9146 15.445 30.3859 14.2586 30.3859C13.0722 30.3859 11.9343 29.9146 11.0954 29.0757C10.2565 28.2367 9.78516 27.0989 9.78516 25.9125V22.1961L11.1055 21.5328V23.3687C11.4942 23.8276 11.9781 24.1962 12.5238 24.4491C13.0694 24.702 13.6635 24.8329 14.2648 24.8329C14.8662 24.8329 15.4603 24.702 16.0059 24.4491C16.5515 24.1962 17.0355 23.8276 17.4242 23.3687V21.3578L18.6414 22.0273C18.6867 22.0523 18.732 22.0765 18.7773 22.1008Z" fill="#A0EAEA"/>
<path d="M16.6437 20.9452C15.945 21.3181 15.1651 21.5132 14.373 21.5132C13.581 21.5132 12.8011 21.3181 12.1023 20.9452C11.7498 20.7576 11.4222 20.5264 11.1273 20.257L11.1055 20.2812V23.3687C11.4942 23.8275 11.9781 24.1962 12.5238 24.4491C13.0694 24.7019 13.6635 24.8329 14.2648 24.8329C14.8662 24.8329 15.4603 24.7019 16.0059 24.4491C16.5515 24.1962 17.0355 23.8275 17.4242 23.3687V20.4257C17.1817 20.6241 16.9203 20.7981 16.6437 20.9452Z" fill="#EFC597"/>
<path d="M17.2164 2.22422V3.16172C17.2167 4.04928 16.9397 4.91477 16.4243 5.63734C15.9089 6.35991 15.1807 6.90349 14.3414 7.19219L14.2438 7.16094C13.3883 6.88233 12.6429 6.3402 12.1142 5.61217C11.5856 4.88414 11.3009 4.00752 11.3008 3.10781V2.225C11.7054 2.0188 12.1307 1.85591 12.5695 1.73906L12.4781 0.859375H16.0391L15.9477 1.73906C16.3865 1.85564 16.8118 2.01827 17.2164 2.22422Z" fill="#EDB740"/>
<path d="M7.82659 10.7516H7.82581C7.90528 11.2413 8.03784 11.721 8.22112 12.1821L8.53674 12.975C8.66247 12.9174 8.79922 12.8878 8.93752 12.8883H9.1969L9.21565 10.7516H7.82659Z" fill="#88B337"/>
<path d="M5.85781 23.6188V39.1406H1.18359V29.5524C1.18367 28.1822 1.64474 26.852 2.49259 25.7757C3.34045 24.6994 4.52578 23.9397 5.85781 23.6188Z" fill="#A0EAEA"/>
<path d="M18.8945 33.8383V39.1406H10.4015V33.8226C11.7101 34.5127 13.1667 34.8746 14.646 34.8773C16.1254 34.88 17.5833 34.5235 18.8945 33.8383Z" fill="#FFDB00"/>
<path d="M9.69922 8.87576C9.69327 7.11555 10.2958 5.40736 11.4047 4.04037C11.3358 3.73428 11.301 3.42153 11.3008 3.10779V2.22498C8.96875 3.40701 7.35547 5.96091 7.35547 8.87576V8.93826H9.69922V8.87576Z" fill="#FFFC8F"/>
<path d="M14.4461 20.9453C13.7872 20.5922 13.2184 20.0924 12.7836 19.4844C12.3503 18.8749 12.0644 18.1732 11.9484 17.4344L11.6818 15.7317C11.5878 15.1313 11.542 14.5245 11.5448 13.9168L11.5594 10.7516H9.2156L9.19685 12.8883H8.93748C8.79918 12.8878 8.66242 12.9174 8.5367 12.975C8.36725 13.052 8.2235 13.1761 8.12253 13.3324C8.02157 13.4888 7.96764 13.6709 7.96716 13.857C7.9663 14.3921 8.43201 14.8297 8.96716 14.8297H9.19685L9.60466 17.4344C9.72063 18.1732 10.0065 18.8749 10.4398 19.4844C10.8747 20.0924 11.4435 20.5922 12.1023 20.9453C13.1577 21.5087 14.3848 21.6595 15.5452 21.3685C15.163 21.2727 14.7939 21.1306 14.4461 20.9453Z" fill="#F4C698"/>
<path d="M11.4047 4.04039C12.0168 3.286 12.7797 2.66768 13.6445 2.225C14.0492 2.0188 14.4744 1.85591 14.9133 1.73906L14.8219 0.859375H12.4781L12.5695 1.73906C12.1307 1.85591 11.7054 2.0188 11.3008 2.225V3.10781C11.301 3.42155 11.3358 3.73431 11.4047 4.04039Z" fill="#FFCC66"/>
<path d="M8.75466 9.84538C8.75462 9.60495 8.85006 9.37434 9.02 9.20425C9.18995 9.03416 9.42048 8.93852 9.66091 8.93835H7.31716C7.07671 8.93835 6.8461 9.03388 6.67607 9.2039C6.50604 9.37393 6.41052 9.60454 6.41052 9.84499C6.41052 10.0854 6.50604 10.3161 6.67607 10.4861C6.8461 10.6561 7.07671 10.7516 7.31716 10.7516H9.66091C9.42056 10.7516 9.19005 10.6562 9.0201 10.4862C8.85014 10.3162 8.75466 10.0857 8.75466 9.84538Z" fill="#FFCC66"/>
<path d="M5.85781 24.7568V23.6188C4.52578 23.9397 3.34045 24.6994 2.49259 25.7757C1.64474 26.852 1.18367 28.1822 1.18359 29.5524V39.1406H3.52734V29.5524C3.52665 28.6286 3.73611 27.7168 4.13986 26.886C4.54362 26.0552 5.13109 25.3271 5.85781 24.7568Z" fill="#74C4C2"/>
<path d="M15.1819 5.07397H13.5C13.3757 5.07397 13.2565 5.02459 13.1685 4.93668C13.0806 4.84877 13.0312 4.72954 13.0312 4.60522C13.0312 4.4809 13.0806 4.36168 13.1685 4.27377C13.2565 4.18586 13.3757 4.13647 13.5 4.13647H15.1817C15.306 4.13647 15.4253 4.18586 15.5132 4.27377C15.6011 4.36168 15.6505 4.4809 15.6505 4.60522C15.6505 4.72954 15.6011 4.84877 15.5132 4.93668C15.4253 5.02459 15.306 5.07397 15.1817 5.07397H15.1819Z" fill="#CC9A36"/>
<path d="M15.1819 3.52344H13.5C13.3757 3.52344 13.2565 3.47405 13.1685 3.38614C13.0806 3.29824 13.0312 3.17901 13.0312 3.05469C13.0312 2.93037 13.0806 2.81114 13.1685 2.72323C13.2565 2.63532 13.3757 2.58594 13.5 2.58594H15.1817C15.306 2.58594 15.4253 2.63532 15.5132 2.72323C15.6011 2.81114 15.6505 2.93037 15.6505 3.05469C15.6505 3.17901 15.6011 3.29824 15.5132 3.38614C15.4253 3.47405 15.306 3.52344 15.1817 3.52344H15.1819Z" fill="#CC9A36"/>
<path d="M14.2586 27.2762C14.1364 27.2762 14.0169 27.24 13.9153 27.1721C13.8137 27.1042 13.7344 27.0077 13.6877 26.8948C13.6409 26.7819 13.6287 26.6576 13.6525 26.5378C13.6763 26.4179 13.7352 26.3078 13.8216 26.2214C13.908 26.135 14.0181 26.0761 14.138 26.0523C14.2579 26.0284 14.3821 26.0407 14.495 26.0875C14.6079 26.1342 14.7044 26.2134 14.7723 26.3151C14.8402 26.4167 14.8764 26.5362 14.8764 26.6584C14.8762 26.8222 14.8111 26.9792 14.6952 27.095C14.5794 27.2108 14.4224 27.276 14.2586 27.2762Z" fill="#5BA5A1"/>
<path d="M14.2586 29.2147C14.1364 29.2147 14.0169 29.1785 13.9153 29.1106C13.8137 29.0427 13.7345 28.9462 13.6877 28.8333C13.6409 28.7204 13.6287 28.5961 13.6525 28.4763C13.6763 28.3564 13.7352 28.2463 13.8216 28.1599C13.908 28.0735 14.0181 28.0146 14.1379 27.9908C14.2578 27.9669 14.382 27.9791 14.495 28.0259C14.6079 28.0727 14.7044 28.1519 14.7723 28.2535C14.8402 28.3551 14.8764 28.4746 14.8764 28.5968C14.8762 28.7606 14.8111 28.9176 14.6953 29.0335C14.5795 29.1493 14.4224 29.2145 14.2586 29.2147Z" fill="#5BA5A1"/>
</svg>
