<svg width="40" height="40" viewBox="0 0 40 40" fill="none" xmlns="http://www.w3.org/2000/svg">
<path d="M18.125 22.5H21.875V37.5C21.875 37.8315 21.7433 38.1495 21.5089 38.3839C21.2745 38.6183 20.9565 38.75 20.625 38.75H19.375C19.0435 38.75 18.7255 38.6183 18.4911 38.3839C18.2567 38.1495 18.125 37.8315 18.125 37.5V22.5Z" fill="#FFDA44"/>
<path d="M33.125 5V12.5H12.5V14.375C12.5 14.7065 12.3683 15.0245 12.1339 15.2589C11.8995 15.4933 11.5815 15.625 11.25 15.625C10.9185 15.625 10.6005 15.4933 10.3661 15.2589C10.1317 15.0245 10 14.7065 10 14.375V21.25C10 21.5815 9.8683 21.8995 9.63388 22.1339C9.39946 22.3683 9.08152 22.5 8.75 22.5C8.41848 22.5 8.10054 22.3683 7.86612 22.1339C7.6317 21.8995 7.5 21.5815 7.5 21.25V17.5C7.5 17.8315 7.3683 18.1495 7.13388 18.3839C6.89946 18.6183 6.58152 18.75 6.25 18.75C5.91848 18.75 5.60054 18.6183 5.36612 18.3839C5.1317 18.1495 5 17.8315 5 17.5V12.5H3.125V5H33.125Z" fill="#FFDA44"/>
<path d="M1.25 6.875H3.125V10.625H1.25V6.875Z" fill="#C6C5CA"/>
<path d="M33.125 6.875H35V10.625H33.125V6.875Z" fill="#C6C5CA"/>
<path d="M18.75 20.625H21.25V22.5H18.75V20.625Z" fill="#C6C5CA"/>
<path d="M36.875 8.125H35.625V6.875C35.625 6.70924 35.5592 6.55027 35.4419 6.43306C35.3247 6.31585 35.1658 6.25 35 6.25H33.75V5C33.75 4.83424 33.6842 4.67527 33.5669 4.55806C33.4497 4.44085 33.2908 4.375 33.125 4.375H3.125C2.95924 4.375 2.80027 4.44085 2.68306 4.55806C2.56585 4.67527 2.5 4.83424 2.5 5V6.25H1.25C1.08424 6.25 0.925268 6.31585 0.808058 6.43306C0.690848 6.55027 0.625 6.70924 0.625 6.875V10.625C0.625 10.7908 0.690848 10.9497 0.808058 11.0669C0.925268 11.1842 1.08424 11.25 1.25 11.25H2.5V12.5C2.5 12.6658 2.56585 12.8247 2.68306 12.9419C2.80027 13.0592 2.95924 13.125 3.125 13.125H4.375V17.5C4.37507 17.7999 4.44709 18.0955 4.585 18.3619C4.72291 18.6282 4.92269 18.8576 5.16758 19.0308C5.41248 19.204 5.69534 19.3159 5.99243 19.3572C6.28952 19.3984 6.59218 19.3679 6.875 19.268V21.25C6.875 21.7473 7.07254 22.2242 7.42417 22.5758C7.77581 22.9275 8.25272 23.125 8.75 23.125C9.24728 23.125 9.72419 22.9275 10.0758 22.5758C10.4275 22.2242 10.625 21.7473 10.625 21.25V16.143C10.9078 16.2429 11.2105 16.2734 11.5076 16.2322C11.8047 16.1909 12.0875 16.079 12.3324 15.9058C12.5773 15.7326 12.7771 15.5032 12.915 15.2369C13.0529 14.9705 13.1249 14.6749 13.125 14.375V13.125H33.125C33.2908 13.125 33.4497 13.0592 33.5669 12.9419C33.6842 12.8247 33.75 12.6658 33.75 12.5V11.25H35C35.1658 11.25 35.3247 11.1842 35.4419 11.0669C35.5592 10.9497 35.625 10.7908 35.625 10.625V9.375H36.875C37.2064 9.37543 37.5241 9.50727 37.7584 9.7416C37.9927 9.97592 38.1246 10.2936 38.125 10.625V15.625C38.1246 15.9564 37.9927 16.2741 37.7584 16.5084C37.5241 16.7427 37.2064 16.8746 36.875 16.875H20C19.8342 16.875 19.6753 16.9408 19.5581 17.0581C19.4408 17.1753 19.375 17.3342 19.375 17.5V20H18.75C18.5842 20 18.4253 20.0658 18.3081 20.1831C18.1908 20.3003 18.125 20.4592 18.125 20.625V21.875C17.9592 21.875 17.8003 21.9408 17.6831 22.0581C17.5658 22.1753 17.5 22.3342 17.5 22.5V37.5C17.5007 37.9971 17.6984 38.4736 18.0499 38.8251C18.4014 39.1766 18.8779 39.3743 19.375 39.375H20.625C21.1221 39.3743 21.5986 39.1766 21.9501 38.8251C22.3016 38.4736 22.4993 37.9971 22.5 37.5V22.5C22.5 22.3342 22.4342 22.1753 22.3169 22.0581C22.1997 21.9408 22.0408 21.875 21.875 21.875V20.625C21.875 20.4592 21.8092 20.3003 21.6919 20.1831C21.5747 20.0658 21.4158 20 21.25 20H20.625V18.125H36.875C37.5378 18.1243 38.1733 17.8606 38.6419 17.3919C39.1106 16.9233 39.3743 16.2878 39.375 15.625V10.625C39.3743 9.96219 39.1106 9.32674 38.6419 8.85806C38.1733 8.38938 37.5378 8.12574 36.875 8.125V8.125ZM2.5 10H1.875V7.5H2.5V10ZM32.5 11.875H12.5C12.3342 11.875 12.1753 11.9408 12.0581 12.0581C11.9408 12.1753 11.875 12.3342 11.875 12.5V14.375C11.875 14.5408 11.8092 14.6997 11.6919 14.8169C11.5747 14.9342 11.4158 15 11.25 15C11.0842 15 10.9253 14.9342 10.8081 14.8169C10.6908 14.6997 10.625 14.5408 10.625 14.375C10.625 14.2092 10.5592 14.0503 10.4419 13.9331C10.3247 13.8158 10.1658 13.75 10 13.75C9.83424 13.75 9.67527 13.8158 9.55806 13.9331C9.44085 14.0503 9.375 14.2092 9.375 14.375V21.25C9.375 21.4158 9.30915 21.5747 9.19194 21.6919C9.07473 21.8092 8.91576 21.875 8.75 21.875C8.58424 21.875 8.42527 21.8092 8.30806 21.6919C8.19085 21.5747 8.125 21.4158 8.125 21.25V17.5C8.125 17.3342 8.05915 17.1753 7.94194 17.0581C7.82473 16.9408 7.66576 16.875 7.5 16.875C7.33424 16.875 7.17527 16.9408 7.05806 17.0581C6.94085 17.1753 6.875 17.3342 6.875 17.5C6.875 17.6658 6.80915 17.8247 6.69194 17.9419C6.57473 18.0592 6.41576 18.125 6.25 18.125C6.08424 18.125 5.92527 18.0592 5.80806 17.9419C5.69085 17.8247 5.625 17.6658 5.625 17.5V12.5C5.625 12.3342 5.55915 12.1753 5.44194 12.0581C5.32473 11.9408 5.16576 11.875 5 11.875H3.75V5.625H32.5V11.875ZM34.375 10H33.75V7.5H34.375V10ZM19.375 21.25H20.625V21.875H19.375V21.25ZM21.25 23.125V37.5C21.2498 37.6657 21.1839 37.8245 21.0667 37.9417C20.9495 38.0589 20.7907 38.1248 20.625 38.125H19.375C19.2093 38.1248 19.0505 38.0589 18.9333 37.9417C18.8161 37.8245 18.7502 37.6657 18.75 37.5V23.125H21.25Z" fill="#384758"/>
<path d="M7.5 11.875C7.33424 11.875 7.17527 11.9408 7.05806 12.0581C6.94085 12.1753 6.875 12.3342 6.875 12.5V15.625C6.875 15.7908 6.94085 15.9497 7.05806 16.0669C7.17527 16.1842 7.33424 16.25 7.5 16.25C7.66576 16.25 7.82473 16.1842 7.94194 16.0669C8.05915 15.9497 8.125 15.7908 8.125 15.625V12.5C8.125 12.3342 8.05915 12.1753 7.94194 12.0581C7.82473 11.9408 7.66576 11.875 7.5 11.875Z" fill="#384758"/>
<path d="M10 11.25C9.83424 11.25 9.67527 11.3158 9.55806 11.4331C9.44085 11.5503 9.375 11.7092 9.375 11.875V12.5C9.375 12.6658 9.44085 12.8247 9.55806 12.9419C9.67527 13.0592 9.83424 13.125 10 13.125C10.1658 13.125 10.3247 13.0592 10.4419 12.9419C10.5592 12.8247 10.625 12.6658 10.625 12.5V11.875C10.625 11.7092 10.5592 11.5503 10.4419 11.4331C10.3247 11.3158 10.1658 11.25 10 11.25Z" fill="#384758"/>
</svg>
