<svg width="28" height="28" viewBox="0 0 28 28" fill="none" xmlns="http://www.w3.org/2000/svg">
<path d="M23.3899 23.8475L21.731 25.5063C21.2163 26.021 20.3778 26.0075 19.88 25.4765L2.70459 7.15541C2.16411 6.57889 2.17866 5.67748 2.7374 5.11873L3.00236 4.85377C3.56116 4.29498 4.46252 4.28043 5.03903 4.82096L23.3601 21.9965C23.8911 22.4943 23.9046 23.3328 23.3899 23.8475Z" fill="url(#paint0_linear_36_116)"/>
<path d="M6.2561 10.9439L10.1052 15.0497L12.9332 12.2216L8.82746 8.37256L6.2561 10.9439Z" fill="url(#paint1_linear_36_116)"/>
<path d="M11.2639 6.64905L4.53284 13.3801L0.55542 9.40268L7.28647 2.67163L11.2639 6.64905Z" fill="url(#paint2_linear_36_116)"/>
<path d="M0.0457774 10.5393L0.555356 9.40271L4.53278 13.3801L3.39615 13.8897C3.19829 13.9784 2.96614 13.9357 2.81275 13.7824L0.153074 11.1227C-0.00026948 10.9693 -0.0429804 10.7372 0.0457774 10.5393Z" fill="url(#paint3_linear_36_116)"/>
<path d="M8.423 2.16207L7.28638 2.67165L11.2638 6.64907L11.7734 5.51245C11.8621 5.31459 11.8194 5.08244 11.666 4.92904L9.00641 2.26942C8.85301 2.11608 8.62086 2.07337 8.423 2.16207Z" fill="url(#paint4_linear_36_116)"/>
<path d="M11.9807 17.0502L15.8298 21.1559L19.0397 17.9461L14.9339 14.097L11.9807 17.0502Z" fill="url(#paint5_linear_36_116)"/>
<path d="M4.27942 24.1061L2.62053 22.4471C2.10587 21.9325 2.11938 21.094 2.65039 20.5962L20.9714 3.42065C21.5479 2.88017 22.4493 2.89472 23.0081 3.45346L23.273 3.71842C23.8318 4.27722 23.8464 5.17858 23.3059 5.7551L6.13038 24.0762C5.63261 24.6072 4.79409 24.6207 4.27942 24.1061Z" fill="url(#paint6_linear_36_116)"/>
<path d="M27.9941 9.43067C28.0236 9.31118 27.9374 9.19278 27.8147 9.18447C25.4485 9.02483 23.0436 7.98074 21.1409 6.07816C20.5165 5.45374 19.9848 4.77523 19.5465 4.06173C18.6672 2.63055 16.6819 2.39698 15.4943 3.58469C14.3478 4.73121 14.5113 6.64735 15.852 7.55932C16.3063 7.8683 16.7382 8.2241 17.1411 8.62698C19.7253 11.2112 20.3836 14.9906 19.1189 18.1854C19.0573 18.3411 19.1995 18.5011 19.36 18.4538C21.3096 17.8807 23.1479 16.8275 24.686 15.2894C26.3635 13.6119 27.4643 11.5773 27.9941 9.43067Z" fill="url(#paint7_linear_36_116)"/>
<path d="M27.9939 9.4309C27.4645 11.5774 26.3633 13.6123 24.6857 15.289C23.1475 16.8272 21.3096 17.8807 19.3599 18.4541C19.1996 18.501 19.0572 18.3408 19.1191 18.1857C20.0638 15.7998 19.9356 13.0874 18.7336 10.7902C19.0081 10.7902 19.2846 10.6827 19.4912 10.4628L22.1082 7.67138C22.2514 7.51852 22.3394 7.33363 22.3729 7.14124C24.0303 8.3722 25.9346 9.05743 27.8143 9.18414C27.9373 9.19306 28.0237 9.31086 27.9939 9.4309Z" fill="url(#paint8_linear_36_116)"/>
<path d="M27.8142 9.18433C27.2668 9.14725 26.7176 9.0627 26.1728 8.9314C25.574 10.6983 24.5723 12.3586 23.1639 13.7671C22.1103 14.8207 20.9153 15.6455 19.6408 16.2456C19.5407 16.907 19.3667 17.5593 19.1175 18.1888C19.0566 18.3427 19.2016 18.5003 19.3604 18.4536C21.3098 17.8805 23.1481 16.8273 24.686 15.2893C26.3636 13.6117 27.4644 11.5771 27.9942 9.43037C28.0238 9.31065 27.9372 9.19269 27.8142 9.18433Z" fill="url(#paint9_linear_36_116)"/>
<path d="M21.2651 5.48032C21.0101 5.22531 20.7682 4.96264 20.5392 4.69336C20.1606 4.24821 19.4834 4.21676 19.0571 4.61647L16.4528 7.05789C16.0254 7.45858 16.0219 8.13058 16.4366 8.54434C16.4392 8.54692 16.4418 8.54948 16.4445 8.55216C16.9946 9.10227 17.4721 9.69743 17.8774 10.3256C18.2388 10.8858 19.0353 10.9493 19.4912 10.4629L22.1082 7.67131C22.5074 7.24552 22.4762 6.56985 22.0326 6.19049C21.7702 5.96594 21.514 5.72925 21.2651 5.48032Z" fill="url(#paint10_linear_36_116)"/>
<defs>
<linearGradient id="paint0_linear_36_116" x1="12.8573" y1="14.6895" x2="10.1732" y2="17.3741" gradientUnits="userSpaceOnUse">
<stop stop-color="#F4CA3E"/>
<stop offset="1" stop-color="#DB9E36"/>
</linearGradient>
<linearGradient id="paint1_linear_36_116" x1="10.1438" y1="12.2608" x2="7.37731" y2="9.49431" gradientUnits="userSpaceOnUse">
<stop stop-color="#DB9E36" stop-opacity="0"/>
<stop offset="1" stop-color="#9E6429"/>
</linearGradient>
<linearGradient id="paint2_linear_36_116" x1="4.58988" y1="6.70665" x2="8.03545" y2="10.1522" gradientUnits="userSpaceOnUse">
<stop stop-color="#E2EDF2"/>
<stop offset="1" stop-color="#9FC7E2"/>
</linearGradient>
<linearGradient id="paint3_linear_36_116" x1="2.5693" y1="12.4782" x2="4.75962" y2="14.6687" gradientUnits="userSpaceOnUse">
<stop stop-color="#9FC7E2"/>
<stop offset="1" stop-color="#4975AD"/>
</linearGradient>
<linearGradient id="paint4_linear_36_116" x1="10.3612" y1="4.68609" x2="12.5517" y2="6.87664" gradientUnits="userSpaceOnUse">
<stop stop-color="#9FC7E2"/>
<stop offset="1" stop-color="#4975AD"/>
</linearGradient>
<linearGradient id="paint5_linear_36_116" x1="15.8797" y1="17.9965" x2="13.0012" y2="15.118" gradientUnits="userSpaceOnUse">
<stop stop-color="#DB9E36" stop-opacity="0"/>
<stop offset="1" stop-color="#9E6429"/>
</linearGradient>
<linearGradient id="paint6_linear_36_116" x1="12.7836" y1="12.9205" x2="14.866" y2="15.0023" gradientUnits="userSpaceOnUse">
<stop stop-color="#FF931E"/>
<stop offset="1" stop-color="#FF5D00"/>
</linearGradient>
<linearGradient id="paint7_linear_36_116" x1="24.1126" y1="5.41456" x2="15.1433" y2="14.3839" gradientUnits="userSpaceOnUse">
<stop stop-color="#E2EDF2"/>
<stop offset="1" stop-color="#9FC7E2"/>
</linearGradient>
<linearGradient id="paint8_linear_36_116" x1="22.7642" y1="13.0354" x2="18.9821" y2="9.25278" gradientUnits="userSpaceOnUse">
<stop stop-color="#E2EDF2" stop-opacity="0"/>
<stop offset="1" stop-color="#4975AD"/>
</linearGradient>
<linearGradient id="paint9_linear_36_116" x1="22.9881" y1="13.7136" x2="10.2308" y2="11.2321" gradientUnits="userSpaceOnUse">
<stop stop-color="#E2EDF2"/>
<stop offset="1" stop-color="#9FC7E2"/>
</linearGradient>
<linearGradient id="paint10_linear_36_116" x1="18.4055" y1="6.7215" x2="20.7629" y2="9.07894" gradientUnits="userSpaceOnUse">
<stop stop-color="#E2EDF2"/>
<stop offset="1" stop-color="#9FC7E2"/>
</linearGradient>
</defs>
</svg>
