<svg width="28" height="28" viewBox="0 0 28 28" fill="none" xmlns="http://www.w3.org/2000/svg">
<path d="M27.4531 4.75781V9.18744L26.5749 10.8919L25.2831 9.4022L24.4048 11.1676L23.113 9.67794L22.2348 11.4433L20.943 9.95362L20.0647 11.719L18.7729 10.2294L17.8947 11.9948L16.6029 10.5051L15.7246 12.2705L14.4328 10.7808L13.5546 12.5462L12.2627 11.0566L11.3845 12.8219L10.0927 11.3322L9.21446 13.0977L7.92969 11.5938V4.75781H27.4531Z" fill="#4975AD"/>
<path d="M6.83594 3.28125H1.64062C1.03655 3.28125 0.546875 3.77092 0.546875 4.375V12.0312C0.546875 12.6353 1.03655 13.1249 1.64062 13.1249H6.83594C7.44002 13.1249 7.92969 12.6353 7.92969 12.0312V4.37495C7.92969 3.77092 7.44002 3.28125 6.83594 3.28125ZM2.29688 10.8281V5.57812C2.29688 5.27609 2.54171 5.03125 2.84375 5.03125H4.53906C4.8411 5.03125 5.08594 5.27609 5.08594 5.57812V10.8281C5.08594 11.1302 4.8411 11.375 4.53906 11.375H2.84375C2.54171 11.375 2.29688 11.1301 2.29688 10.8281Z" fill="#FFE352"/>
<path d="M9.57031 6.01562H7.92969V10.3906H9.57031C9.87235 10.3906 10.1172 10.1458 10.1172 9.84375V6.5625C10.1172 6.26046 9.87235 6.01562 9.57031 6.01562Z" fill="#D3D3D3"/>
<path d="M2.29688 17.2266H23.2969V20.1797H2.29688V17.2266Z" fill="#FFE352"/>
<path d="M0.546875 16.5156H2.29688V20.8906H0.546875V16.5156Z" fill="#FFB236"/>
<path d="M23.2969 18.7031V14.875H26.5781V18.7031H23.2969Z" fill="#EDEFF1"/>
<path d="M26.5781 23.2422V18.7031H23.2969V24.7188H25.1016L26.5781 23.2422Z" fill="#EDEFF1"/>
<path d="M22.4219 14.875V13.125H27.4531V14.875H22.4219Z" fill="#EDEFF1"/>
<path d="M24.9375 21.2188C26.3268 21.2188 27.4531 20.0925 27.4531 18.7031C27.4531 17.3138 26.3268 16.1875 24.9375 16.1875C23.5482 16.1875 22.4219 17.3138 22.4219 18.7031C22.4219 20.0925 23.5482 21.2188 24.9375 21.2188Z" fill="#D3D3D3"/>
<path d="M24.9375 20.1797C25.753 20.1797 26.4141 19.5186 26.4141 18.7031C26.4141 17.8876 25.753 17.2266 24.9375 17.2266C24.122 17.2266 23.4609 17.8876 23.4609 18.7031C23.4609 19.5186 24.122 20.1797 24.9375 20.1797Z" fill="#EDEFF1"/>
</svg>
