<svg width="28" height="28" viewBox="0 0 28 28" fill="none" xmlns="http://www.w3.org/2000/svg">
<g clip-path="url(#clip0_36_153)">
<path d="M24.2813 7.32658L27.7813 20.4516C26.4905 20.4516 26.5345 19.3228 25.6287 19.6291L24.8409 16.1774L24.1501 13.1717L23.5592 10.586L23.0695 8.43351L22.6757 6.71428C23.3494 6.48233 23.3186 7.32658 24.2813 7.32658Z" fill="#DA4453"/>
<g opacity="0.3">
<path opacity="0.3" d="M25.2785 16.1774L24.5876 13.1717L23.9968 10.586L23.5072 8.4335L23.118 6.73475C23.0013 6.67069 22.8672 6.64802 22.6758 6.71422L23.0697 8.43344L23.5593 10.5859L24.1502 13.1716L24.841 16.1773L25.6289 19.629C25.8011 19.5709 25.9391 19.5649 26.0578 19.5927L25.2785 16.1774Z" fill="white"/>
<path opacity="0.3" d="M26.1232 19.6141C26.5815 19.7782 26.7828 20.4515 27.7813 20.4515L27.7663 20.3956C26.9461 20.1785 26.852 19.409 26.1232 19.6141Z" fill="white"/>
</g>
<path d="M20.0156 13.889L19.1406 7.32648C20.1032 7.32648 21.7088 7.03769 22.6757 6.71423L23.0695 8.43346L23.5592 10.5859L24.1501 13.1716L24.8409 16.1774L25.6288 19.6291C24.3338 20.0665 22.1813 20.4515 20.8906 20.4515L20.0156 13.889Z" fill="#ED5565"/>
<g opacity="0.3">
<path opacity="0.3" d="M24.841 16.1774L24.1502 13.1716L23.5593 10.5859L23.0697 8.43346L22.6758 6.71423C22.5497 6.75651 22.4117 6.79796 22.2665 6.83815L22.6322 8.43346L23.1218 10.5859L23.7127 13.1716L24.4035 16.1774L25.1914 19.6291C24.0319 20.0209 22.1891 20.3682 20.889 20.437L20.8907 20.4515C22.1814 20.4515 24.3339 20.0666 25.6289 19.6291L24.841 16.1774Z" fill="white"/>
</g>
<path d="M19.1407 7.32658L20.0157 13.8891L20.8906 20.4516C19.5999 20.4516 19.6439 19.3228 18.7381 19.6291L18.1345 13.1717L17.8982 10.5903L17.697 8.43778L17.535 6.71428C18.2088 6.48233 18.1781 7.32658 19.1407 7.32658Z" fill="#DA4453"/>
<g opacity="0.3">
<path opacity="0.3" d="M18.5719 13.1717L18.3357 10.5903L18.1345 8.43776L17.9742 6.73304C17.858 6.67029 17.7247 6.64888 17.535 6.71426L17.697 8.43776L17.8982 10.5903L18.1345 13.1717L18.7381 19.6291C18.9128 19.5702 19.0518 19.565 19.1722 19.5945L18.5719 13.1717Z" fill="white"/>
<path opacity="0.3" d="M19.2324 19.6142C19.6909 19.7782 19.8921 20.4515 20.8906 20.4515L20.8833 20.3977C20.0553 20.1841 19.9634 19.4082 19.2324 19.6142Z" fill="white"/>
</g>
<path d="M18.1345 13.1716L18.7381 19.6291C17.4474 20.0665 15.2907 20.4515 14 20.4515V16.9515V13.889V11.264V9.07648V7.32648C14.9626 7.32648 16.5725 7.03769 17.535 6.71423L17.697 8.43773L17.8982 10.5903L18.1345 13.1716Z" fill="#ED5565"/>
<g opacity="0.3">
<path opacity="0.3" d="M18.1345 13.1717L17.8982 10.5903L17.697 8.43773L17.535 6.71423C17.4043 6.75782 17.2608 6.80097 17.1095 6.84286L17.2594 8.43773L17.4607 10.5903L17.6969 13.1717L18.3007 19.6291C17.1453 20.0209 15.301 20.3678 14 20.437V20.4516C15.2907 20.4516 17.4474 20.0666 18.7381 19.6291L18.1345 13.1717Z" fill="white"/>
</g>
<path d="M14 16.9515V20.4515C12.7093 20.4515 12.7531 19.3227 11.8475 19.6291L11.9919 16.1859L12.1188 13.1716L12.2282 10.5902L12.32 8.43768L12.3944 6.71418C13.0724 6.48217 13.0374 7.32642 13.9999 7.32642V9.07642V11.2639V13.889L14 16.9515Z" fill="#DA4453"/>
<g opacity="0.3">
<path opacity="0.3" d="M12.4294 16.1859L12.5563 13.1717L12.6657 10.5902L12.7576 8.43769L12.8313 6.73084C12.7161 6.66978 12.5833 6.64969 12.3944 6.71419L12.32 8.43769L12.2282 10.5902L12.1188 13.1717L11.9919 16.1859L11.8475 19.6291C12.0246 19.5692 12.1647 19.5654 12.2863 19.5962L12.4294 16.1859Z" fill="white"/>
<path opacity="0.3" d="M12.3419 19.6141C12.8006 19.7782 13.0016 20.4515 14 20.4515V20.3998C13.165 20.1887 13.0752 19.4077 12.3419 19.6141Z" fill="white"/>
</g>
<path d="M12.3201 8.4378L12.2282 10.5903L12.1188 13.1718L11.992 16.186L11.8476 19.6292C10.5526 20.0666 8.40007 20.4516 7.10938 20.4516L7.57744 16.9516L7.9844 13.8891L8.33436 11.2641L8.62764 9.0766L8.85938 7.3266C9.82196 7.3266 11.4276 7.03781 12.3945 6.71436L12.3201 8.4378Z" fill="#ED5565"/>
<g opacity="0.3">
<path opacity="0.3" d="M11.9512 6.84713L11.8826 8.43773L11.7907 10.5903L11.6814 13.1717L11.5545 16.1859L11.41 19.6291C10.2516 20.0205 8.4114 20.3674 7.11129 20.4371L7.10938 20.4516C8.40007 20.4516 10.5526 20.0666 11.8476 19.6291L11.992 16.1859L12.1188 13.1717L12.2282 10.5903L12.3201 8.43773L12.3944 6.71423C12.2588 6.75952 12.1084 6.80393 11.9512 6.84713Z" fill="white"/>
</g>
<path d="M6.56239 10.5902L6.94734 8.43768L7.25371 6.71418C7.93177 6.48217 7.89667 7.32642 8.85926 7.32642L8.62752 9.07642L8.33424 11.2639L7.98428 13.889L7.57732 16.9515L7.10926 20.4515C5.81856 20.4515 5.86237 19.3227 4.95679 19.629L5.56925 16.1858L6.10308 13.1716L6.56239 10.5902Z" fill="#DA4453"/>
<g opacity="0.3">
<path opacity="0.3" d="M6.00683 16.186L6.54066 13.1718L6.99997 10.5903L7.38491 8.43779L7.68843 6.72968C7.57372 6.66988 7.44126 6.64979 7.25377 6.71429L6.9474 8.43779L6.56245 10.5903L6.10315 13.1718L5.56932 16.186L4.95691 19.6292C5.13613 19.5685 5.27751 19.5655 5.39995 19.5976L6.00683 16.186Z" fill="white"/>
<path opacity="0.3" d="M5.45117 19.6142C5.90982 19.7782 6.11084 20.4515 7.10929 20.4515L7.11591 20.402C6.27445 20.1935 6.18668 19.4074 5.45117 19.6142Z" fill="white"/>
</g>
<path d="M6.94743 8.4378L6.56248 10.5903L6.10317 13.1718L5.56934 16.186L4.95693 19.6291C3.66624 20.0666 1.50944 20.4516 0.21875 20.4516L3.7188 7.3266C4.68133 7.3266 6.29127 7.03781 7.25385 6.71436L6.94743 8.4378Z" fill="#ED5565"/>
<g opacity="0.3">
<path opacity="0.3" d="M6.79163 6.85228L6.50984 8.43779L6.1249 10.5903L5.66559 13.1717L5.13176 16.186L4.51929 19.6291C3.36533 20.0205 1.52323 20.3673 0.222461 20.437L0.218628 20.4516C1.50932 20.4516 3.66612 20.0666 4.95681 19.6291L5.56927 16.1859L6.1031 13.1717L6.56241 10.5903L6.94736 8.43773L7.25373 6.71423C7.11311 6.76127 6.9559 6.80738 6.79163 6.85228Z" fill="white"/>
</g>
<path d="M13.9999 20.4515C15.2906 20.4515 17.4474 20.0665 18.7381 19.629C19.6439 19.3226 19.5998 20.4515 20.8906 20.4515C22.1813 20.4515 24.3337 20.0665 25.6287 19.629C26.5345 19.3226 26.4904 20.4515 27.7812 20.4515V21.3264C26.4905 21.3264 26.5345 20.1977 25.6287 20.504C24.3337 20.9415 22.1813 21.3264 20.8906 21.3264C19.5999 21.3264 19.6439 20.1977 18.7381 20.504C17.4474 20.9415 15.2906 21.3264 13.9999 21.3264C12.7092 21.3264 12.753 20.1977 11.8475 20.504C10.5525 20.9415 8.39997 21.3264 7.10928 21.3264C5.81858 21.3264 5.86239 20.1977 4.95681 20.504C3.66612 20.9415 1.50932 21.3264 0.218628 21.3264V20.4515C1.50932 20.4515 3.66612 20.0665 4.95681 19.629C5.86234 19.3226 5.81853 20.4515 7.10928 20.4515C8.40002 20.4515 10.5525 20.0665 11.8475 19.629C12.753 19.3227 12.7092 20.4515 13.9999 20.4515Z" fill="#CCD1D9"/>
<path d="M7.59061 17.1703C6.89606 17.1656 6.55432 16.8495 6.30484 16.6183L6.25742 16.5747C6.16811 16.4931 6.16214 16.3547 6.24373 16.2654C6.32554 16.1766 6.46397 16.1702 6.55268 16.2518L6.60196 16.2975C6.84213 16.5197 7.06893 16.7294 7.57889 16.7328C7.69936 16.7337 7.80323 16.832 7.80279 16.9524C7.80236 17.0729 7.71107 17.1703 7.59061 17.1703Z" fill="#FFDA44"/>
<path d="M2.0387 17.1268C1.92716 17.1268 1.83194 17.0418 1.82121 16.9286C1.80965 16.8085 1.89809 16.7017 2.01839 16.6902C3.15488 16.5829 4.55394 16.2971 5.49961 15.9788C5.61493 15.9412 5.73862 16.0019 5.77668 16.1164C5.81534 16.2309 5.75385 16.3548 5.63929 16.3932C4.66477 16.7214 3.22601 17.0157 2.0594 17.126C2.05256 17.1264 2.04555 17.1268 2.0387 17.1268Z" fill="#FFDA44"/>
<path d="M14 17.1703C13.2987 17.1703 12.9573 16.8477 12.708 16.6119C12.6202 16.529 12.6161 16.3906 12.6992 16.3026C12.7821 16.215 12.9203 16.2107 13.0084 16.2941C13.2367 16.5098 13.4728 16.7328 14 16.7328C14.1209 16.7328 14.2188 16.8307 14.2188 16.9516C14.2188 17.0725 14.1209 17.1703 14 17.1703Z" fill="#FFDA44"/>
<path d="M8.45667 17.1221C8.34519 17.1221 8.24991 17.0371 8.23918 16.9239C8.22762 16.8038 8.31584 16.697 8.43614 16.6855C9.59552 16.5756 10.9962 16.2919 11.9218 15.9788C12.037 15.9416 12.1604 16.0014 12.1991 16.1159C12.2377 16.2304 12.1765 16.3543 12.062 16.3932C11.1074 16.7158 9.66704 17.0084 8.47754 17.1212C8.47058 17.1217 8.46352 17.1221 8.45667 17.1221Z" fill="#FFDA44"/>
<path d="M20.4095 17.1703C19.8003 17.1703 19.4568 16.9302 19.1757 16.6704C19.0872 16.5884 19.0817 16.45 19.1637 16.3611C19.2457 16.2723 19.3841 16.2671 19.473 16.3491C19.6828 16.5431 19.9281 16.7328 20.4095 16.7328C20.5301 16.7328 20.6283 16.8306 20.6283 16.9515C20.6283 17.0724 20.5301 17.1703 20.4095 17.1703Z" fill="#FFDA44"/>
<path d="M14.875 17.1221C14.763 17.1221 14.6682 17.0371 14.6571 16.9239C14.646 16.8039 14.734 16.697 14.8545 16.6855C16.005 16.5765 17.4402 16.286 18.3442 15.9788C18.4595 15.9416 18.5826 16.0014 18.6214 16.1155C18.6603 16.23 18.5988 16.3543 18.4842 16.3932C17.5375 16.7149 16.0951 17.0076 14.8954 17.1212C14.8886 17.1217 14.8818 17.1221 14.875 17.1221Z" fill="#FFDA44"/>
<path d="M21.293 17.1221C21.1811 17.1221 21.0863 17.037 21.0752 16.9239C21.0641 16.8038 21.152 16.6969 21.2726 16.6854C22.4287 16.5756 23.824 16.2915 24.7447 15.9787C25.2967 15.8075 25.5766 16.0663 25.8227 16.2962C25.8825 16.3518 25.9449 16.4103 26.015 16.4659C26.109 16.5415 26.1244 16.6791 26.0487 16.7735C25.9731 16.8675 25.8359 16.8833 25.7415 16.8077C25.6629 16.7444 25.5921 16.679 25.5245 16.6162C25.2827 16.3907 25.1733 16.3022 24.9058 16.3864C23.9356 16.7158 22.5004 17.0085 21.3136 17.1213C21.3067 17.1216 21.2999 17.1221 21.293 17.1221Z" fill="#FFDA44"/>
<path d="M7.98442 14.1079C7.32821 14.1079 7.00476 13.8088 6.76848 13.5905C6.67988 13.5084 6.67429 13.37 6.75632 13.2815C6.83835 13.1926 6.9765 13.1871 7.06543 13.2691C7.27882 13.4665 7.49954 13.6703 7.98442 13.6703C8.10533 13.6703 8.20318 13.7682 8.20318 13.8891C8.20318 14.01 8.10533 14.1079 7.98442 14.1079Z" fill="#FFDA44"/>
<path d="M2.85649 14.0553C2.74522 14.0553 2.6501 13.9711 2.63899 13.8579C2.62727 13.7378 2.7151 13.6306 2.83535 13.6191C3.8983 13.5148 5.18347 13.2521 6.03303 12.9645C6.14775 12.9257 6.27161 12.9872 6.31027 13.1017C6.34893 13.2162 6.28766 13.3401 6.17316 13.3789C5.29517 13.6759 3.97086 13.9476 2.87801 14.0544C2.87083 14.0549 2.86355 14.0553 2.85649 14.0553Z" fill="#FFDA44"/>
<path d="M14 14.1079C13.3517 14.1079 13.017 13.7999 12.8371 13.6345C12.7482 13.5529 12.7422 13.4144 12.824 13.3255C12.9059 13.2362 13.0449 13.2307 13.1332 13.3123C13.3383 13.5012 13.559 13.6704 14.0001 13.6704C14.121 13.6704 14.2188 13.7682 14.2188 13.8891C14.2188 14.0101 14.1209 14.1079 14 14.1079Z" fill="#FFDA44"/>
<path d="M8.86332 14.0553C8.75205 14.0553 8.65677 13.9707 8.64582 13.8579C8.6341 13.7374 8.72215 13.6306 8.8424 13.6191C9.91072 13.5148 11.1993 13.2516 12.0487 12.9645C12.164 12.9257 12.2875 12.9872 12.3259 13.1017C12.3646 13.2162 12.3033 13.3401 12.1888 13.3789C11.311 13.6759 9.98311 13.9472 8.88467 14.0544C8.87767 14.0549 8.87038 14.0553 8.86332 14.0553Z" fill="#FFDA44"/>
<path d="M20.0156 14.1079C19.4564 14.1079 19.1372 13.8895 18.8984 13.6759C18.8083 13.5956 18.8006 13.4572 18.8813 13.367C18.9621 13.2772 19.1009 13.2696 19.1902 13.3499C19.3637 13.505 19.5841 13.6703 20.0156 13.6703C20.1366 13.6703 20.2343 13.7682 20.2343 13.8891C20.2344 14.0101 20.1366 14.1079 20.0156 14.1079Z" fill="#FFDA44"/>
<path d="M14.875 14.06C14.7639 14.06 14.669 13.9758 14.6571 13.8634C14.6451 13.743 14.7327 13.6358 14.8528 13.6233C15.9329 13.5135 17.224 13.2486 18.0643 12.9645C18.1793 12.9257 18.3032 12.9872 18.3416 13.1017C18.3801 13.2162 18.319 13.3401 18.2045 13.3789C17.3359 13.6729 16.0067 13.9459 14.8972 14.0586C14.8896 14.0595 14.8818 14.06 14.875 14.06Z" fill="#FFDA44"/>
<path d="M20.8863 14.06C20.7753 14.06 20.6804 13.9758 20.6685 13.8635C20.6565 13.743 20.7436 13.6358 20.8642 13.6234C21.9438 13.5136 23.2361 13.2482 24.0804 12.9641C24.5931 12.7894 24.8632 13.0376 25.1024 13.2564L25.1994 13.344C25.2903 13.423 25.2997 13.5614 25.2203 13.6524C25.1416 13.7434 25.0024 13.7533 24.9118 13.6734L24.8067 13.579C24.5879 13.3786 24.4888 13.2867 24.221 13.3786C23.3481 13.6725 22.0172 13.9456 20.9085 14.0587C20.9008 14.0596 20.8936 14.06 20.8863 14.06Z" fill="#FFDA44"/>
<path d="M8.35175 11.4828C7.7797 11.4781 7.47952 11.2452 7.2416 11.0274C7.15251 10.9458 7.14654 10.8073 7.22813 10.7181C7.30994 10.6292 7.44776 10.6233 7.53729 10.7048C7.73853 10.889 7.93762 11.0419 8.33626 11.0454C8.45673 11.0466 8.56224 11.1449 8.5618 11.2654C8.56131 11.3854 8.47228 11.4828 8.35175 11.4828Z" fill="#FFDA44"/>
<path d="M3.55657 11.4349C3.4459 11.4349 3.35106 11.3512 3.33935 11.2388C3.32675 11.1188 3.41387 11.0111 3.53395 10.9987C4.51768 10.8953 5.70674 10.6479 6.49262 10.3831C6.60712 10.3446 6.7312 10.4061 6.76969 10.5206C6.80835 10.6351 6.74686 10.759 6.63236 10.7975C5.81888 11.0718 4.59204 11.3273 3.57968 11.4337C3.57201 11.4345 3.56407 11.4349 3.55657 11.4349Z" fill="#FFDA44"/>
<path d="M14.0042 11.4828C13.4661 11.4828 13.1659 11.2747 12.9425 11.0713C12.8532 10.9902 12.8468 10.8518 12.9282 10.7624C13.0095 10.6736 13.1478 10.6667 13.2373 10.7479C13.3952 10.8919 13.5972 11.0453 13.9999 11.0453C14.1208 11.0453 14.2208 11.1432 14.2208 11.2641C14.2208 11.385 14.1251 11.4828 14.0042 11.4828Z" fill="#FFDA44"/>
<path d="M9.2179 11.4302C9.1068 11.4302 9.01174 11.3464 9.0004 11.2336C8.98819 11.1132 9.07602 11.006 9.19605 10.994C10.1773 10.8949 11.3677 10.6496 12.1584 10.3831C12.2729 10.3446 12.397 10.4061 12.4355 10.5206C12.4742 10.6351 12.4126 10.759 12.2981 10.7975C11.4796 11.0735 10.2505 11.3273 9.24008 11.4294C9.23263 11.4297 9.22518 11.4302 9.2179 11.4302Z" fill="#FFDA44"/>
<path d="M19.6567 11.4827C19.1534 11.4827 18.8625 11.2973 18.6651 11.1358C18.5715 11.0594 18.5579 10.9213 18.6348 10.8278C18.7108 10.7347 18.8484 10.7206 18.9424 10.7975C19.0996 10.9261 19.2953 11.0453 19.6567 11.0453C19.7781 11.0453 19.8755 11.1431 19.8755 11.264C19.8755 11.3849 19.7781 11.4827 19.6567 11.4827Z" fill="#FFDA44"/>
<path d="M14.875 11.4302C14.7639 11.4302 14.6686 11.346 14.6571 11.2332C14.6451 11.1132 14.7332 11.006 14.8532 10.994C15.8436 10.8944 17.0394 10.6487 17.8281 10.3831C17.9427 10.3446 18.0669 10.4061 18.1054 10.5206C18.1443 10.6351 18.0827 10.759 17.9682 10.7975C17.1509 11.073 15.9166 11.3268 14.8967 11.4294C14.8895 11.4297 14.8818 11.4302 14.875 11.4302Z" fill="#FFDA44"/>
<path d="M20.5317 11.4303C20.421 11.4303 20.3261 11.347 20.3146 11.2346C20.3018 11.1141 20.389 11.0065 20.509 10.994C21.5071 10.8898 22.6979 10.6441 23.472 10.3831C23.4797 10.3805 23.4877 10.3784 23.4959 10.3767C23.4968 10.3763 23.4976 10.3763 23.4985 10.3758C23.9659 10.2254 24.2291 10.4647 24.441 10.657L24.5008 10.7112C24.5914 10.7916 24.5991 10.93 24.5188 11.0201C24.4384 11.1102 24.3 11.1183 24.2103 11.0381L24.1466 10.9808C23.9317 10.7856 23.8467 10.7223 23.6279 10.7941C23.6202 10.7963 23.6126 10.7984 23.6044 10.8001C23.6044 10.8001 23.604 10.8001 23.6035 10.8005C22.802 11.0697 21.578 11.3222 20.5547 11.429C20.547 11.4299 20.5394 11.4303 20.5317 11.4303Z" fill="#FFDA44"/>
<path d="M8.64059 9.29533C8.12981 9.29062 7.84956 9.1022 7.62051 8.89927C7.53016 8.81938 7.52156 8.68095 7.60167 8.59038C7.68227 8.50025 7.82065 8.49209 7.91061 8.57155C8.07188 8.71468 8.26013 8.85437 8.62969 8.85782C8.75016 8.85908 8.85333 8.95737 8.85267 9.07789C8.85223 9.19835 8.76106 9.29533 8.64059 9.29533Z" fill="#FFDA44"/>
<path d="M4.13852 9.24283C4.02807 9.24283 3.93323 9.15955 3.9213 9.04718C3.90848 8.9271 3.99544 8.81944 4.11569 8.80663C5.0452 8.70752 6.12951 8.48147 6.87783 8.23068C6.99211 8.19224 7.11624 8.25379 7.1549 8.36829C7.19334 8.48323 7.13163 8.60709 7.01708 8.64553C6.241 8.90574 5.12032 9.13989 4.16179 9.24157C4.15413 9.2424 4.14624 9.24283 4.13852 9.24283Z" fill="#FFDA44"/>
<path d="M14 9.29535C13.5161 9.29535 13.2337 9.11163 13.0417 8.95185C12.949 8.8741 12.9364 8.73649 13.0137 8.64335C13.091 8.55064 13.229 8.53827 13.3219 8.61558C13.4728 8.74164 13.6594 8.85783 14 8.85783C14.1209 8.85783 14.2187 8.95568 14.2187 9.07659C14.2187 9.1975 14.1209 9.29535 14 9.29535Z" fill="#FFDA44"/>
<path d="M9.49782 9.24283C9.38737 9.24283 9.29253 9.15955 9.28054 9.04718C9.26778 8.9271 9.35468 8.81944 9.47498 8.80663C10.4078 8.70752 11.5229 8.47594 12.2502 8.23068C12.3651 8.19224 12.4887 8.25379 12.5272 8.36829C12.5659 8.48279 12.5044 8.60671 12.3899 8.64515C11.6238 8.90366 10.4978 9.13781 9.52109 9.24163C9.51343 9.24239 9.50554 9.24283 9.49782 9.24283Z" fill="#FFDA44"/>
<path d="M19.3593 9.29536C18.9072 9.29536 18.6385 9.13339 18.4758 9.01122C18.3792 8.93899 18.3591 8.80188 18.4313 8.70491C18.5039 8.60875 18.6406 8.58827 18.738 8.66088C18.8679 8.75829 19.0431 8.85784 19.3593 8.85784C19.4802 8.85784 19.578 8.9557 19.578 9.0766C19.578 9.19751 19.4802 9.29536 19.3593 9.29536Z" fill="#FFDA44"/>
<path d="M14.875 9.24275C14.7643 9.24275 14.6695 9.15947 14.6575 9.04754C14.6447 8.92746 14.7314 8.81936 14.8519 8.80655C15.7931 8.70574 16.9083 8.47461 17.6265 8.23061C17.7418 8.19217 17.8657 8.25327 17.9041 8.36777C17.9426 8.48227 17.8819 8.60619 17.7675 8.64501C17.0215 8.89794 15.8683 9.13767 14.8981 9.2415C14.8904 9.24232 14.8827 9.24275 14.875 9.24275Z" fill="#FFDA44"/>
<path d="M20.243 9.23853C20.1328 9.23853 20.0379 9.15562 20.026 9.04331C20.0127 8.92329 20.0995 8.81514 20.2199 8.80233C21.136 8.70409 22.2429 8.47422 22.974 8.23066C22.9846 8.22682 23.0013 8.22299 23.0184 8.22042C23.4649 8.08582 23.7114 8.3157 23.9096 8.5011C23.9985 8.58357 24.0032 8.722 23.9207 8.80999C23.8387 8.89886 23.7003 8.90357 23.6115 8.82111C23.4115 8.63438 23.3384 8.57804 23.1355 8.64211C23.1193 8.6472 23.1026 8.65021 23.0859 8.65147C22.2999 8.9091 21.1882 9.1381 20.2666 9.23721C20.2584 9.23809 20.2507 9.23853 20.243 9.23853Z" fill="#FFDA44"/>
<path d="M7.10935 20.6703C6.37127 20.6703 6.00171 20.3281 5.7317 20.0782C5.47856 19.8437 5.35185 19.727 5.02697 19.8364C3.67052 20.2961 1.51328 20.6703 0.218702 20.6703C0.0977972 20.6703 0 20.5725 0 20.4516C0 20.3307 0.0977972 20.2328 0.218702 20.2328C1.45217 20.2328 3.58991 19.8616 4.88663 19.4219C5.45934 19.2296 5.76144 19.5095 6.02882 19.7573C6.28153 19.991 6.54283 20.2328 7.1093 20.2328C7.2302 20.2328 7.32805 20.3307 7.32805 20.4516C7.32805 20.5725 7.23026 20.6703 7.10935 20.6703Z" fill="#FFDA44"/>
<path d="M14 20.6703C13.262 20.6703 12.8924 20.3281 12.6224 20.0782C12.3695 19.8437 12.2428 19.727 11.9177 19.8364C10.5565 20.2961 8.39947 20.6703 7.10938 20.6703C6.98848 20.6703 6.89062 20.5725 6.89062 20.4516C6.89062 20.3307 6.98848 20.2328 7.10938 20.2328C8.33858 20.2328 10.4763 19.8616 11.7775 19.4219C12.35 19.2296 12.6521 19.5095 12.9195 19.7573C13.1722 19.991 13.4335 20.2328 14 20.2328C14.1209 20.2328 14.2187 20.3307 14.2187 20.4516C14.2187 20.5725 14.1209 20.6703 14 20.6703Z" fill="#FFDA44"/>
<path d="M20.8907 20.6703C20.1524 20.6703 19.7832 20.3281 19.5132 20.0782C19.2603 19.8437 19.133 19.727 18.8083 19.8364C17.4518 20.2961 15.2946 20.6703 14 20.6703C13.8791 20.6703 13.7812 20.5725 13.7812 20.4516C13.7812 20.3307 13.8791 20.2328 14 20.2328C15.2334 20.2328 17.371 19.8616 18.6681 19.4219C19.2397 19.2296 19.5427 19.5095 19.8101 19.7573C20.0626 19.991 20.3241 20.2328 20.8906 20.2328C21.0115 20.2328 21.1094 20.3307 21.1094 20.4516C21.1094 20.5725 21.0116 20.6703 20.8907 20.6703Z" fill="#FFDA44"/>
<path d="M27.7813 20.6703C27.043 20.6703 26.6738 20.3281 26.4039 20.0782C26.1505 19.8437 26.0236 19.727 25.6989 19.8364C24.3377 20.2961 22.1809 20.6703 20.8906 20.6703C20.7697 20.6703 20.6719 20.5725 20.6719 20.4516C20.6719 20.3307 20.7697 20.2328 20.8906 20.2328C22.1198 20.2328 24.2573 19.8616 25.5587 19.4219C26.1303 19.2296 26.4333 19.5095 26.7007 19.7573C26.9532 19.991 27.2147 20.2328 27.7812 20.2328C27.9021 20.2328 27.9999 20.3307 27.9999 20.4516C27.9999 20.5725 27.9022 20.6703 27.7813 20.6703Z" fill="#FFDA44"/>
<path d="M7.10935 21.5453C6.37127 21.5453 6.00171 21.2031 5.7317 20.9532C5.47856 20.7191 5.35185 20.602 5.02697 20.7114C3.67052 21.1711 1.51328 21.5453 0.218702 21.5453C0.0977972 21.5453 0 21.4475 0 21.3266C0 21.2057 0.0977972 21.1079 0.218702 21.1079C1.45217 21.1079 3.58991 20.7366 4.88663 20.2969C5.45934 20.1046 5.76144 20.3845 6.02882 20.6323C6.28153 20.8661 6.54283 21.1079 7.1093 21.1079C7.2302 21.1079 7.32805 21.2057 7.32805 21.3266C7.32811 21.4475 7.23026 21.5453 7.10935 21.5453Z" fill="#FFDA44"/>
<path d="M14 21.5453C13.262 21.5453 12.8924 21.2031 12.6224 20.9532C12.3695 20.7191 12.2428 20.602 11.9177 20.7114C10.5565 21.1711 8.39947 21.5453 7.10938 21.5453C6.98848 21.5453 6.89062 21.4475 6.89062 21.3266C6.89062 21.2057 6.98848 21.1079 7.10938 21.1079C8.33858 21.1079 10.4763 20.7366 11.7775 20.2969C12.35 20.1046 12.6521 20.3845 12.9195 20.6323C13.1722 20.8661 13.4335 21.1079 14 21.1079C14.1209 21.1079 14.2187 21.2057 14.2187 21.3266C14.2188 21.4475 14.1209 21.5453 14 21.5453Z" fill="#FFDA44"/>
<path d="M20.8907 21.5453C20.1524 21.5453 19.7832 21.2031 19.5132 20.9532C19.2603 20.7191 19.133 20.602 18.8083 20.7114C17.4518 21.1711 15.2946 21.5453 14 21.5453C13.8791 21.5453 13.7812 21.4475 13.7812 21.3266C13.7812 21.2057 13.8791 21.1079 14 21.1079C15.2334 21.1079 17.371 20.7366 18.6681 20.2969C19.2397 20.1046 19.5427 20.3845 19.8101 20.6323C20.0626 20.8661 20.3241 21.1079 20.8906 21.1079C21.0115 21.1079 21.1094 21.2057 21.1094 21.3266C21.1094 21.4475 21.0116 21.5453 20.8907 21.5453Z" fill="#FFDA44"/>
<path d="M27.7813 21.5453C27.043 21.5453 26.6738 21.2031 26.4039 20.9532C26.1505 20.7191 26.0236 20.602 25.6989 20.7114C24.3377 21.1711 22.1809 21.5453 20.8906 21.5453C20.7697 21.5453 20.6719 21.4475 20.6719 21.3266C20.6719 21.2057 20.7697 21.1079 20.8906 21.1079C22.1198 21.1079 24.2573 20.7366 25.5587 20.2969C26.1303 20.1046 26.4333 20.3845 26.7007 20.6323C26.9532 20.8661 27.2147 21.1079 27.7812 21.1079C27.9021 21.1079 27.9999 21.2057 27.9999 21.3266C28 21.4475 27.9022 21.5453 27.7813 21.5453Z" fill="#FFDA44"/>
<path d="M8.85935 7.54526C8.2879 7.54526 8.00338 7.28166 7.79574 7.08897C7.59878 6.90613 7.52655 6.85143 7.32449 6.92108C6.30042 7.26545 4.68326 7.54526 3.71876 7.54526C3.5978 7.54526 3.5 7.44741 3.5 7.3265C3.5 7.2056 3.5978 7.10775 3.71876 7.10775C4.62812 7.10775 6.21516 6.83265 7.1841 6.50663C7.64296 6.35068 7.8925 6.58186 8.09329 6.76809C8.28166 6.94282 8.45946 7.10775 8.8593 7.10775C8.9802 7.10775 9.07805 7.2056 9.07805 7.3265C9.07805 7.44741 8.98026 7.54526 8.85935 7.54526Z" fill="#FFDA44"/>
<path d="M14 7.54532C13.4285 7.54532 13.144 7.28172 12.9364 7.08903C12.7393 6.90619 12.667 6.85149 12.4651 6.92114C11.4363 7.26551 9.81939 7.54532 8.85933 7.54532C8.73842 7.54532 8.64062 7.44747 8.64062 7.32656C8.64062 7.20566 8.73842 7.10781 8.85933 7.10781C9.76447 7.10781 11.3515 6.83271 12.3249 6.50668C12.7834 6.3503 13.0333 6.58192 13.2339 6.76815C13.4223 6.94288 13.6001 7.10781 14 7.10781C14.1209 7.10781 14.2187 7.20566 14.2187 7.32656C14.2187 7.44747 14.1209 7.54532 14 7.54532Z" fill="#FFDA44"/>
<path d="M19.1407 7.54531C18.569 7.54531 18.2836 7.28127 18.0751 7.08858C17.8785 6.90657 17.8059 6.8523 17.606 6.92108C16.5814 7.26545 14.9648 7.54526 14 7.54526C13.8791 7.54526 13.7812 7.44741 13.7812 7.3265C13.7812 7.2056 13.8791 7.10774 14 7.10774C14.9092 7.10774 16.4964 6.83264 17.4654 6.50662C17.9204 6.34979 18.1708 6.58098 18.3724 6.76721C18.5613 6.94238 18.7398 7.10774 19.1406 7.10774C19.2615 7.10774 19.3594 7.2056 19.3594 7.3265C19.3594 7.44741 19.2616 7.54531 19.1407 7.54531Z" fill="#FFDA44"/>
<path d="M24.2813 7.54538C23.7096 7.54538 23.4242 7.28134 23.2157 7.08865C23.0187 6.90663 22.9474 6.85237 22.7466 6.92114C21.7178 7.26551 20.1007 7.54533 19.1406 7.54533C19.0197 7.54533 18.9219 7.44747 18.9219 7.32657C18.9219 7.20566 19.0197 7.10781 19.1406 7.10781C20.0455 7.10781 21.6328 6.83271 22.6065 6.50668C23.0623 6.34986 23.3119 6.58148 23.5131 6.76728C23.7019 6.94244 23.8805 7.10781 24.2813 7.10781C24.4022 7.10781 24.5 7.20566 24.5 7.32657C24.5 7.44747 24.4022 7.54538 24.2813 7.54538Z" fill="#FFDA44"/>
<path d="M0.218924 20.6703C0.200142 20.6703 0.181305 20.6682 0.162359 20.663C0.0457253 20.6319 -0.0237074 20.5118 0.00744971 20.3952L3.5075 7.27013C3.53866 7.15349 3.65957 7.08472 3.77516 7.11549C3.89179 7.14627 3.96123 7.2663 3.93001 7.38293L0.430015 20.508C0.40395 20.6059 0.315516 20.6703 0.218924 20.6703Z" fill="#FFDA44"/>
<path d="M27.7813 20.6703C27.6848 20.6703 27.5959 20.6058 27.5703 20.508L24.0702 7.38293C24.0386 7.2663 24.1083 7.14621 24.2249 7.11549C24.342 7.08472 24.4616 7.15349 24.4924 7.27013L27.9924 20.3952C28.024 20.5118 27.9544 20.6318 27.8377 20.663C27.8189 20.6678 27.8001 20.6703 27.7813 20.6703Z" fill="#FFDA44"/>
<path d="M25.6288 19.8478C25.5289 19.8478 25.4387 19.7791 25.4156 19.6778L22.4625 6.763C22.4356 6.64506 22.5091 6.52798 22.6269 6.5011C22.7431 6.4729 22.862 6.5472 22.8889 6.66515L25.842 19.5803C25.8689 19.6983 25.7954 19.8153 25.6775 19.8423C25.6613 19.8461 25.6451 19.8478 25.6288 19.8478Z" fill="#FFDA44"/>
<path d="M18.7381 19.8479C18.6262 19.8479 18.5309 19.7628 18.5202 19.6496L17.3171 6.73478C17.306 6.61432 17.394 6.50748 17.5145 6.49637C17.6358 6.48651 17.7418 6.57325 17.7529 6.69371L18.9561 19.6085C18.9672 19.729 18.8792 19.8354 18.7587 19.8469C18.7518 19.8474 18.745 19.8479 18.7381 19.8479Z" fill="#FFDA44"/>
<path d="M11.8477 19.8479C11.8445 19.8479 11.8416 19.8479 11.8383 19.8479C11.7176 19.8427 11.6238 19.7406 11.629 19.6201L12.1758 6.70495C12.1812 6.58448 12.2906 6.49474 12.4037 6.49561C12.5244 6.50076 12.618 6.60283 12.6129 6.72379L12.066 19.6381C12.0612 19.756 11.9644 19.8479 11.8477 19.8479Z" fill="#FFDA44"/>
<path d="M4.9571 19.8478C4.9445 19.8478 4.93142 19.8465 4.91866 19.8444C4.79967 19.8234 4.72044 19.7098 4.74157 19.5906L7.03844 6.6758C7.05936 6.55703 7.17325 6.47626 7.29202 6.49893C7.41101 6.51985 7.49025 6.63353 7.46911 6.7523L5.17224 19.6675C5.1534 19.7735 5.06114 19.8478 4.9571 19.8478Z" fill="#FFDA44"/>
<path d="M7.10963 20.6703C7.1 20.6703 7.09025 20.6699 7.08039 20.6682C6.96075 20.6523 6.87658 20.5421 6.89257 20.4225L8.64263 7.29791C8.6584 7.17826 8.77054 7.09541 8.88805 7.10992C9.00786 7.12575 9.09208 7.23554 9.07625 7.35518L7.32625 20.4807C7.31152 20.5904 7.21756 20.6703 7.10963 20.6703Z" fill="#FFDA44"/>
<path d="M14 20.6703C13.8791 20.6703 13.7812 20.5724 13.7812 20.4515V7.32654C13.7812 7.20564 13.8791 7.10779 14 7.10779C14.1209 7.10779 14.2188 7.20564 14.2188 7.32654V20.4515C14.2188 20.5724 14.1209 20.6703 14 20.6703Z" fill="#FFDA44"/>
<path d="M20.8906 20.6703C20.7821 20.6703 20.6885 20.5904 20.6735 20.4806L18.9235 7.35557C18.9077 7.23592 18.9919 7.12575 19.1116 7.10992C19.2329 7.09541 19.3414 7.17832 19.3577 7.29791L21.1077 20.4225C21.1234 20.5425 21.0393 20.6523 20.9196 20.6686C20.9094 20.6699 20.9 20.6703 20.8906 20.6703Z" fill="#FFDA44"/>
<path d="M27.7812 21.5453C27.6603 21.5453 27.5625 21.4475 27.5625 21.3265V20.4515C27.5625 20.3306 27.6603 20.2328 27.7812 20.2328C27.9021 20.2328 27.9999 20.3306 27.9999 20.4515V21.3265C27.9999 21.4475 27.9021 21.5453 27.7812 21.5453Z" fill="#FFDA44"/>
<path d="M0.218702 21.5453C0.0977972 21.5453 0 21.4475 0 21.3265V20.4515C0 20.3306 0.0977972 20.2328 0.218702 20.2328C0.339662 20.2328 0.437459 20.3306 0.437459 20.4515V21.3265C0.437459 21.4475 0.339662 21.5453 0.218702 21.5453Z" fill="#FFDA44"/>
</g>
<defs>
<clipPath id="clip0_36_153">
<rect width="28" height="28" fill="white"/>
</clipPath>
</defs>
</svg>
