<svg width="32" height="32" viewBox="0 0 32 32" fill="none" xmlns="http://www.w3.org/2000/svg">
<path opacity="0.7" fill-rule="evenodd" clip-rule="evenodd" d="M9.95325 1.42137C11.5173 1.34937 12.0159 1.33337 15.9999 1.33337C19.9839 1.33337 20.4826 1.35071 22.0452 1.42137C23.6079 1.49204 24.6746 1.74137 25.6079 2.10271C26.5852 2.47204 27.4719 3.04937 28.2052 3.79604C28.9519 4.52804 29.5279 5.41337 29.8959 6.39204C30.2586 7.32537 30.5066 8.39204 30.5786 9.95204C30.6506 11.5187 30.6666 12.0174 30.6666 16C30.6666 19.984 30.6492 20.4827 30.5786 22.0467C30.5079 23.6067 30.2586 24.6734 29.8959 25.6067C29.5279 26.5855 28.951 27.4723 28.2052 28.2054C27.4719 28.952 26.5852 29.528 25.6079 29.896C24.6746 30.2587 23.6079 30.5067 22.0479 30.5787C20.4826 30.6507 19.9839 30.6667 15.9999 30.6667C12.0159 30.6667 11.5173 30.6494 9.95325 30.5787C8.39325 30.508 7.32658 30.2587 6.39325 29.896C5.41448 29.528 4.52768 28.951 3.79458 28.2054C3.04842 27.4729 2.471 26.5865 2.10259 25.608C1.74125 24.6747 1.49325 23.608 1.42125 22.048C1.34925 20.4814 1.33325 19.9827 1.33325 16C1.33325 12.016 1.35059 11.5174 1.42125 9.95471C1.49192 8.39204 1.74125 7.32537 2.10259 6.39204C2.47155 5.41348 3.04941 4.52712 3.79592 3.79471C4.52797 3.04871 5.41388 2.4713 6.39192 2.10271C7.32525 1.74137 8.39192 1.49337 9.95192 1.42137H9.95325ZM21.9266 4.06137C20.3799 3.99071 19.9159 3.97604 15.9999 3.97604C12.0839 3.97604 11.6199 3.99071 10.0733 4.06137C8.64258 4.12671 7.86658 4.36537 7.34925 4.56671C6.66525 4.83337 6.17592 5.14937 5.66258 5.66271C5.17598 6.13611 4.80149 6.71242 4.56658 7.34937C4.36525 7.86671 4.12658 8.64271 4.06125 10.0734C3.99058 11.62 3.97592 12.084 3.97592 16C3.97592 19.916 3.99058 20.38 4.06125 21.9267C4.12658 23.3574 4.36525 24.1334 4.56658 24.6507C4.80125 25.2867 5.17592 25.864 5.66258 26.3374C6.13592 26.824 6.71325 27.1987 7.34925 27.4334C7.86658 27.6347 8.64258 27.8734 10.0733 27.9387C11.6199 28.0094 12.0826 28.024 15.9999 28.024C19.9172 28.024 20.3799 28.0094 21.9266 27.9387C23.3572 27.8734 24.1332 27.6347 24.6506 27.4334C25.3346 27.1667 25.8239 26.8507 26.3372 26.3374C26.8239 25.864 27.1986 25.2867 27.4332 24.6507C27.6346 24.1334 27.8732 23.3574 27.9386 21.9267C28.0092 20.38 28.0239 19.916 28.0239 16C28.0239 12.084 28.0092 11.62 27.9386 10.0734C27.8732 8.64271 27.6346 7.86671 27.4332 7.34937C27.1666 6.66537 26.8506 6.17604 26.3372 5.66271C25.8638 5.17614 25.2875 4.80165 24.6506 4.56671C24.1332 4.36537 23.3572 4.12671 21.9266 4.06137ZM14.1266 20.5214C15.1728 20.9569 16.3378 21.0157 17.4225 20.6877C18.5072 20.3597 19.4444 19.6653 20.0741 18.723C20.7037 17.7808 20.9867 16.6492 20.8746 15.5215C20.7626 14.3938 20.2626 13.34 19.4599 12.54C18.9482 12.0287 18.3295 11.6371 17.6484 11.3936C16.9672 11.15 16.2405 11.0605 15.5206 11.1315C14.8007 11.2025 14.1055 11.4323 13.485 11.8042C12.8645 12.1762 12.3342 12.681 11.9323 13.2825C11.5304 13.884 11.2668 14.5671 11.1606 15.2827C11.0544 15.9982 11.1081 16.7284 11.318 17.4207C11.5278 18.113 11.8886 18.7502 12.3742 19.2863C12.8599 19.8225 13.4584 20.2443 14.1266 20.5214ZM10.6693 10.6694C11.3693 9.96934 12.2003 9.41404 13.115 9.03519C14.0296 8.65633 15.0099 8.46134 15.9999 8.46134C16.9899 8.46134 17.9702 8.65633 18.8849 9.03519C19.7995 9.41404 20.6306 9.96934 21.3306 10.6694C22.0306 11.3694 22.5859 12.2005 22.9648 13.1151C23.3436 14.0297 23.5386 15.01 23.5386 16C23.5386 16.99 23.3436 17.9703 22.9648 18.885C22.5859 19.7996 22.0306 20.6307 21.3306 21.3307C19.9168 22.7445 17.9993 23.5387 15.9999 23.5387C14.0005 23.5387 12.083 22.7445 10.6693 21.3307C9.25547 19.9169 8.46122 17.9994 8.46122 16C8.46122 14.0007 9.25547 12.0832 10.6693 10.6694ZM25.2106 9.58404C25.3841 9.4204 25.5229 9.22361 25.619 9.00534C25.715 8.78706 25.7663 8.55173 25.7698 8.31328C25.7733 8.07483 25.7289 7.8381 25.6392 7.61712C25.5496 7.39614 25.4165 7.19539 25.2479 7.02676C25.0792 6.85813 24.8785 6.72505 24.6575 6.6354C24.4365 6.54574 24.1998 6.50134 23.9613 6.50482C23.7229 6.50829 23.4876 6.55958 23.2693 6.65563C23.051 6.75169 22.8542 6.89057 22.6906 7.06404C22.3723 7.40141 22.1981 7.84953 22.2049 8.31328C22.2116 8.77702 22.3988 9.21988 22.7268 9.54783C23.0547 9.87578 23.4976 10.063 23.9613 10.0698C24.4251 10.0765 24.8732 9.90229 25.2106 9.58404Z" fill="white"/>
</svg>
